<?xml version="1.0" encoding="UTF-8" standalone="no"?><svg xmlns="http://www.w3.org/2000/svg" xmlns:xlink="http://www.w3.org/1999/xlink" clip-rule="evenodd" fill="#77f7ca" fill-rule="evenodd" height="30" preserveAspectRatio="xMidYMid meet" stroke-linejoin="round" stroke-miterlimit="2" version="1" viewBox="3.3 1.0 25.3 30.0" width="25.3" zoomAndPan="magnify"><g id="change1_1"><path d="M16,1l-11.667,0c-0.552,0 -1,0.448 -1,1l0,28c0,0.552 0.448,1 1,1l23.334,0c0.552,0 1,-0.448 1,-1l-0,-14c-0,-0.552 -0.448,-1 -1,-1c-0.552,-0 -1,0.448 -1,1l-0,13c-0,0 -21.334,0 -21.334,0c0,0 0,-26 0,-26c0,0 10.667,0 10.667,0c0.552,0 1,-0.448 1,-1c0,-0.552 -0.448,-1 -1,-1Zm12.135,7.079c0.391,-0.391 0.391,-1.024 0,-1.415l-2.828,-2.828c-0.391,-0.391 -1.024,-0.391 -1.414,-0l-9.9,9.899c-0.109,0.11 -0.192,0.244 -0.241,0.391l-1.415,4.243c-0.119,0.359 -0.026,0.755 0.242,1.023c0.268,0.268 0.664,0.362 1.023,0.242l4.243,-1.414c0.147,-0.049 0.281,-0.132 0.391,-0.242l9.899,-9.899Zm-5.656,-0l1.414,1.414l-6.904,6.904c-0,-0 -2.122,0.707 -2.122,0.707c0,0 0.707,-2.121 0.707,-2.121l6.905,-6.904Zm1.414,-1.415l0.707,-0.707l1.414,1.414l-0.707,0.708l-1.414,-1.415Z"/></g></svg>